<?xml version="1.0" encoding="UTF-8"?>
<svg xmlns="http://www.w3.org/2000/svg" xmlns:xlink="http://www.w3.org/1999/xlink" width="20px" height="20px" viewBox="0 0 20 20" version="1.1">
<g id="surface1">
<path style=" stroke:none;fill-rule:nonzero;fill:rgb(0%,0%,0%);fill-opacity:1;" d="M 10 8.75 C 7.585938 8.75 5.625 6.789062 5.625 4.375 C 5.625 1.960938 7.585938 0 10 0 C 12.414062 0 14.375 1.960938 14.375 4.375 C 14.375 6.789062 12.414062 8.75 10 8.75 Z M 10 1.25 C 8.277344 1.25 6.875 2.652344 6.875 4.375 C 6.875 6.097656 8.277344 7.5 10 7.5 C 11.722656 7.5 13.125 6.097656 13.125 4.375 C 13.125 2.652344 11.722656 1.25 10 1.25 Z M 10 1.25 "/>
<path style=" stroke:none;fill-rule:nonzero;fill:rgb(0%,0%,0%);fill-opacity:1;" d="M 16.875 20 C 16.53125 20 16.25 19.71875 16.25 19.375 L 16.25 15.554688 C 16.25 13.160156 14.304688 11.214844 11.910156 11.214844 L 8.089844 11.214844 C 5.695312 11.214844 3.75 13.160156 3.75 15.554688 L 3.75 19.375 C 3.75 19.71875 3.46875 20 3.125 20 C 2.78125 20 2.5 19.71875 2.5 19.375 L 2.5 15.554688 C 2.5 12.472656 5.007812 9.964844 8.089844 9.964844 L 11.910156 9.964844 C 14.992188 9.964844 17.5 12.472656 17.5 15.554688 L 17.5 19.375 C 17.5 19.71875 17.21875 20 16.875 20 Z M 16.875 20 "/>
</g>
</svg>
