<svg width="40" height="40" viewBox="0 0 40 40" fill="none" xmlns="http://www.w3.org/2000/svg">
<g id="Group 19">
<circle id="Ellipse 107" cx="20" cy="20" r="20" fill="white" fill-opacity="0.1"/>
<g id="Vector">
<path d="M25.9695 17.528C25.9414 16.8904 25.8383 16.4521 25.6905 16.0722C25.5381 15.6691 25.3037 15.3081 24.9965 15.008C24.6963 14.7033 24.3329 14.4665 23.9343 14.3165C23.5522 14.1688 23.1161 14.0657 22.4783 14.0375C21.8358 14.0071 21.6319 14 20.0023 14C18.3728 14 18.1688 14.0071 17.5287 14.0352C16.891 14.0633 16.4526 14.1665 16.0727 14.3141C15.6694 14.4665 15.3083 14.7009 15.0082 15.008C14.7034 15.3081 14.4666 15.6714 14.3165 16.07C14.1688 16.4521 14.0657 16.8881 14.0376 17.5257C14.0071 18.168 14 18.372 14 20.0012C14 21.6304 14.0071 21.8343 14.0352 22.4743C14.0633 23.1119 14.1665 23.5503 14.3142 23.9301C14.4666 24.3333 14.7034 24.6943 15.0082 24.9944C15.3083 25.2991 15.6718 25.5359 16.0704 25.6859C16.4526 25.8336 16.8886 25.9367 17.5264 25.9648C18.1664 25.993 18.3705 26 20 26C21.6296 26 21.8336 25.993 22.4737 25.9648C23.1114 25.9367 23.5498 25.8336 23.9296 25.6859C24.7363 25.3741 25.374 24.7365 25.6859 23.9301C25.8335 23.548 25.9367 23.1119 25.9648 22.4743C25.9929 21.8343 26 21.6304 26 20.0012C26 18.372 25.9976 18.168 25.9695 17.528ZM24.8887 22.4275C24.8628 23.0135 24.7644 23.33 24.6823 23.541C24.4806 24.0637 24.0657 24.4786 23.5428 24.6803C23.3318 24.7623 23.0129 24.8608 22.4291 24.8865C21.796 24.9147 21.6061 24.9217 20.0047 24.9217C18.4033 24.9217 18.2111 24.9147 17.5803 24.8865C16.9941 24.8608 16.6776 24.7623 16.4666 24.6803C16.2064 24.5841 15.9695 24.4318 15.7773 24.2325C15.578 24.0379 15.4256 23.8035 15.3294 23.5433C15.2473 23.3324 15.1489 23.0135 15.1231 22.4298C15.0949 21.7969 15.088 21.607 15.088 20.0059C15.088 18.4047 15.0949 18.2125 15.1231 17.582C15.1489 16.9959 15.2473 16.6795 15.3294 16.4685C15.4256 16.2082 15.578 15.9715 15.7797 15.7792C15.9742 15.58 16.2087 15.4276 16.4689 15.3315C16.68 15.2495 16.9989 15.151 17.5827 15.1252C18.2157 15.0971 18.4057 15.0901 20.007 15.0901C21.6108 15.0901 21.8007 15.0971 22.4314 15.1252C23.0176 15.151 23.3341 15.2495 23.5452 15.3315C23.8054 15.4276 24.0422 15.58 24.2345 15.7792C24.4337 15.9738 24.5862 16.2082 24.6823 16.4685C24.7644 16.6795 24.8628 16.9982 24.8887 17.582C24.9168 18.2149 24.9238 18.4047 24.9238 20.0059C24.9238 21.607 24.9168 21.7945 24.8887 22.4275Z" fill="white"/>
<path d="M20.0023 16.9185C18.3002 16.9185 16.9191 18.2993 16.9191 20.0012C16.9191 21.7031 18.3002 23.0838 20.0023 23.0838C21.7046 23.0838 23.0856 21.7031 23.0856 20.0012C23.0856 18.2993 21.7046 16.9185 20.0023 16.9185ZM20.0023 22.0008C18.8981 22.0008 18.0023 21.1054 18.0023 20.0012C18.0023 18.897 18.8981 18.0016 20.0023 18.0016C21.1067 18.0016 22.0024 18.897 22.0024 20.0012C22.0024 21.1054 21.1067 22.0008 20.0023 22.0008Z" fill="white"/>
<path d="M23.9274 16.7967C23.9274 17.1941 23.6051 17.5163 23.2075 17.5163C22.81 17.5163 22.4877 17.1941 22.4877 16.7967C22.4877 16.3992 22.81 16.077 23.2075 16.077C23.6051 16.077 23.9274 16.3992 23.9274 16.7967Z" fill="white"/>
</g>
</g>
</svg>
