<svg width="40" height="40" viewBox="0 0 40 40" fill="none" xmlns="http://www.w3.org/2000/svg">
<g id="Group 18">
<circle id="Ellipse 108" cx="20" cy="20" r="20" fill="white" fill-opacity="0.1"/>
<path id="XMLID 824" d="M23.7031 15.2297C22.8273 14.4367 21.6153 14 20.2904 14C18.2665 14 17.0217 14.7825 16.3338 15.4388C15.4861 16.2477 15 17.3218 15 18.3857C15 19.7215 15.5924 20.7467 16.5844 21.1282C16.651 21.1539 16.7181 21.1669 16.7838 21.1669C16.993 21.1669 17.1589 21.0377 17.2163 20.8305C17.2498 20.7117 17.3274 20.4184 17.3611 20.2911C17.4334 20.0398 17.375 19.9189 17.2175 19.7438C16.9306 19.4236 16.797 19.045 16.797 18.5522C16.797 17.0885 17.9525 15.5329 20.0943 15.5329C21.7937 15.5329 22.8493 16.4439 22.8493 17.9103C22.8493 18.8356 22.638 19.6926 22.2542 20.3234C21.9874 20.7617 21.5184 21.2842 20.7983 21.2842C20.4869 21.2842 20.2072 21.1636 20.0307 20.9533C19.864 20.7545 19.8091 20.4976 19.8761 20.23C19.9519 19.9275 20.0552 19.6121 20.1551 19.3071C20.3374 18.7501 20.5098 18.224 20.5098 17.8042C20.5098 17.0863 20.0418 16.6039 19.3454 16.6039C18.4603 16.6039 17.7669 17.4517 17.7669 18.534C17.7669 19.0649 17.9165 19.4619 17.9842 19.6143C17.8727 20.0599 17.2101 22.7088 17.0844 23.2083C17.0117 23.4999 16.5739 25.803 17.2986 25.9866C18.1128 26.1929 18.8405 23.9499 18.9146 23.6964C18.9746 23.4903 19.1847 22.7109 19.3134 22.2317C19.7065 22.5888 20.3393 22.8302 20.9551 22.8302C22.116 22.8302 23.16 22.3375 23.8948 21.4429C24.6075 20.5753 25 19.3659 25 18.0379C25 16.9996 24.5273 15.976 23.7031 15.2297Z" fill="white"/>
</g>
</svg>
