<svg width="40" height="40" viewBox="0 0 40 40" fill="none" xmlns="http://www.w3.org/2000/svg">
<g id="Group 20">
<circle id="Ellipse 106" cx="20" cy="20" r="20" fill="white" fill-opacity="0.1"/>
<g id="Group">
<g id="Group_2">
<path id="Vector" d="M26.3077 16.1838C25.85 16.3846 25.3623 16.5177 24.8538 16.5823C25.3769 16.27 25.7762 15.7792 25.9638 15.1877C25.4762 15.4785 24.9377 15.6838 24.3638 15.7985C23.9008 15.3054 23.2408 15 22.5208 15C21.1238 15 19.9992 16.1338 19.9992 17.5238C19.9992 17.7238 20.0162 17.9162 20.0577 18.0992C17.96 17.9969 16.1038 16.9915 14.8569 15.46C14.6392 15.8377 14.5115 16.27 14.5115 16.7354C14.5115 17.6092 14.9615 18.3838 15.6323 18.8323C15.2269 18.8246 14.8292 18.7069 14.4923 18.5215C14.4923 18.5292 14.4923 18.5392 14.4923 18.5492C14.4923 19.7754 15.3669 20.7938 16.5138 21.0285C16.3085 21.0846 16.0846 21.1115 15.8523 21.1115C15.6908 21.1115 15.5277 21.1023 15.3746 21.0685C15.7015 22.0677 16.6292 22.8023 17.7323 22.8262C16.8738 23.4977 15.7838 23.9023 14.6038 23.9023C14.3969 23.9023 14.1985 23.8931 14 23.8677C15.1177 24.5885 16.4423 25 17.8708 25C22.5138 25 25.0523 21.1538 25.0523 17.82C25.0523 17.7085 25.0485 17.6008 25.0431 17.4938C25.5438 17.1385 25.9646 16.6946 26.3077 16.1838Z" fill="white"/>
</g>
</g>
</g>
</svg>
