<svg width="40" height="40" viewBox="0 0 40 40" fill="none" xmlns="http://www.w3.org/2000/svg">
<g id="Group 17">
<circle id="Ellipse 105" cx="20" cy="20" r="20" fill="white"/>
<g id="XMLID 823">
<path id="XMLID 823_2" d="M27.4153 15.9062C26.8739 15.2625 25.8742 15 23.965 15H17.0348C15.082 15 14.0653 15.2795 13.5259 15.9647C13 16.6329 13 17.6173 13 18.9798V21.5767C13 24.2162 13.624 25.5564 17.0348 25.5564H23.9651C25.6207 25.5564 26.5381 25.3247 27.1316 24.7567C27.7403 24.1742 28 23.2232 28 21.5767V18.9798C28 17.5429 27.9593 16.5527 27.4153 15.9062ZM22.63 20.6368L19.483 22.2815C19.4127 22.3183 19.3358 22.3365 19.2589 22.3365C19.1719 22.3365 19.0851 22.3131 19.0082 22.2665C18.8635 22.1788 18.775 22.0219 18.775 21.8526V18.5737C18.775 18.4048 18.8632 18.248 19.0077 18.1602C19.1522 18.0724 19.332 18.0664 19.4819 18.1443L22.6289 19.7785C22.789 19.8616 22.8896 20.0269 22.8898 20.2072C22.89 20.3877 22.7899 20.5532 22.63 20.6368Z" fill="#0047FF"/>
</g>
</g>
</svg>
